<?xml version="1.0" encoding="utf-8"?>
<!-- Generator: Adobe Illustrator 22.0.1, SVG Export Plug-In . SVG Version: 6.00 Build 0)  -->
<svg version="1.1" id="Layer_1" xmlns="http://www.w3.org/2000/svg" xmlns:xlink="http://www.w3.org/1999/xlink" x="0px" y="0px"
	 viewBox="0 0 31 31" style="enable-background:new 0 0 31 31;" xml:space="preserve">
<style type="text/css">
	.st0{fill:#ffffff;}
</style>
<title>Instagram with circle</title>
<g id="Layer_2_1_">
	<g id="Layer_1-2">
		<g>
			<path class="st0" d="M18.9,8h-6.7C9.9,8,8,9.9,8,12.1v6.7c0,2.3,1.9,4.1,4.1,4.1h6.7c2.3,0,4.1-1.9,4.1-4.1v-6.7
				C23,9.9,21.1,8,18.9,8z M21.7,18.9c0,1.6-1.3,2.8-2.8,2.8h-6.7c-1.6,0-2.8-1.3-2.8-2.8l0,0v-6.7c0-1.6,1.3-2.8,2.8-2.8l0,0h6.7
				c1.6,0,2.8,1.3,2.8,2.8C21.7,12.1,21.7,18.9,21.7,18.9z"/>
		</g>
		<g>
			<path class="st0" d="M15.5,11.6c-2.1,0-3.9,1.7-3.9,3.9c0,2.1,1.7,3.9,3.9,3.9c2.1,0,3.9-1.7,3.9-3.9c0,0,0,0,0,0
				C19.4,13.4,17.6,11.6,15.5,11.6z M15.5,18c-1.4,0-2.5-1.1-2.6-2.5c0-1.4,1.1-2.5,2.5-2.6c1.4,0,2.5,1.1,2.6,2.5c0,0,0,0,0,0
				C18,16.9,16.9,18,15.5,18L15.5,18z"/>
		</g>
		<g>
			<path class="st0" d="M19.5,10.5c-0.3,0-0.5,0.1-0.7,0.3c-0.2,0.2-0.3,0.4-0.3,0.7c0,0.6,0.4,1,1,1c0.3,0,0.5-0.1,0.7-0.3
				c0.2-0.2,0.3-0.4,0.3-0.7C20.5,10.9,20.1,10.5,19.5,10.5L19.5,10.5z"/>
		</g>
		<g>
			<path class="st0" d="M15.5,31C7,31,0,24,0,15.5S7,0,15.5,0S31,7,31,15.5S24,31,15.5,31z M15.5,1C7.5,1,1,7.5,1,15.5
				S7.5,30,15.5,30S30,23.5,30,15.5S23.5,1,15.5,1z"/>
		</g>
	</g>
</g>
</svg>
