<svg xmlns="http://www.w3.org/2000/svg" width="150.2" height="63.5" viewBox="0 0 150.2 63.5"><defs><style>.a{fill:#fff;}</style></defs><path class="a" d="M42.7,36.4l-.4-.4h.4v0h0Z"/><path class="a" d="M50.1,36.9l-.7-.6Z"/><path class="a" d="M33.2,38.2a5.04,5.04,0,0,1-3.6-1.5,5.372,5.372,0,0,0-1.6-1,3.416,3.416,0,0,0-1.5-.2,3.424,3.424,0,0,0-1.8.4,3.805,3.805,0,0,0-1.3.9c-.1.1-.2.2-.3.2a5.2,5.2,0,0,1-2.9,1.2h-.5a5.04,5.04,0,0,1-3.6-1.5,5.372,5.372,0,0,0-1.6-1,3.416,3.416,0,0,0-1.5-.2,3.064,3.064,0,0,0-1.7.4h0a3.805,3.805,0,0,0-1.3.9l-.1.1h0l-.1.1a4.888,4.888,0,0,1-3,1.2H6.4a5.04,5.04,0,0,1-3.6-1.5,5.372,5.372,0,0,0-1.6-1l.3-.9A4.739,4.739,0,0,1,3.3,36a4.084,4.084,0,0,0,3.1,1.3h.4a3.781,3.781,0,0,0,2.3-1l.1-.1c.1-.1.2-.1.3-.2a8.467,8.467,0,0,1,1.4-1H11a5.091,5.091,0,0,1,2.2-.5,5.23,5.23,0,0,1,1.8.3A6.15,6.15,0,0,1,16.9,36,4.084,4.084,0,0,0,20,37.3h.4a4.088,4.088,0,0,0,2.4-1c.1-.1.2-.2.3-.2a7.1,7.1,0,0,1,1.4-1,5.45,5.45,0,0,1,2.2-.5,5.23,5.23,0,0,1,1.8.3,6.15,6.15,0,0,1,1.9,1.2,4.256,4.256,0,0,0,3.1,1.3h.8l.1.9a.9.9,0,0,0-.5.1A1.078,1.078,0,0,0,33.2,38.2Z"/><path class="a" d="M33.2,54.3a5.04,5.04,0,0,1-3.6-1.5,4.256,4.256,0,0,0-3.1-1.3,4.441,4.441,0,0,0-3.1,1.3,5.07,5.07,0,0,1-7.2,0,4.256,4.256,0,0,0-3.1-1.3A4.441,4.441,0,0,0,10,52.8a5.152,5.152,0,0,1-3.4,1.5v-1A3.96,3.96,0,0,0,9.5,52a5.07,5.07,0,0,1,7.2,0,4.256,4.256,0,0,0,3.1,1.3A4.441,4.441,0,0,0,22.9,52a5.07,5.07,0,0,1,7.2,0,4.256,4.256,0,0,0,3.1,1.3A4.441,4.441,0,0,0,36.3,52a5.07,5.07,0,0,1,7.2,0,4.9,4.9,0,0,0,2.9,1.3v.9A5.152,5.152,0,0,1,43,52.7a4.256,4.256,0,0,0-3.1-1.3,4.441,4.441,0,0,0-3.1,1.3A4.547,4.547,0,0,1,33.2,54.3Z"/><path class="a" d="M33.2,45.5A5.04,5.04,0,0,1,29.6,44a4.256,4.256,0,0,0-3.1-1.3A4.441,4.441,0,0,0,23.4,44a5.07,5.07,0,0,1-7.2,0,4.256,4.256,0,0,0-3.1-1.3A4.441,4.441,0,0,0,10,44a5.07,5.07,0,0,1-7.2,0,5.5,5.5,0,0,0-.9-.7l.5-.8a3.915,3.915,0,0,1,1,.8,4.084,4.084,0,0,0,3.1,1.3,4.441,4.441,0,0,0,3.1-1.3,5.07,5.07,0,0,1,7.2,0,4.256,4.256,0,0,0,3.1,1.3A4.441,4.441,0,0,0,23,43.3a5.07,5.07,0,0,1,7.2,0,4.256,4.256,0,0,0,3.1,1.3,3.817,3.817,0,0,0,2.8-1.1,6.834,6.834,0,0,1-2.4-5.8,11.081,11.081,0,0,1,.4-2.8l-.2.1-1.5-1.2,4.4-4.4.3.5a5.656,5.656,0,0,1,.7,2.5,2.95,2.95,0,0,1-.9,2.1,1.425,1.425,0,0,0-.6,1.2,2.676,2.676,0,0,0,.2,1c.4.9,1.6,2,5.1,2.3h1.2c4.9,0,6.1-1.6,6.5-2.5v-.1a2.252,2.252,0,0,0,.1-.7c0-.6-.3-.8-.6-1.2a2.762,2.762,0,0,1-.9-2.1,6.246,6.246,0,0,1,.7-2.5l.3-.5,4.4,4.4L51.9,35l-.1-.1c0,.1.1.3.1.4.4,2,.6,4.7-1,6.9a8.344,8.344,0,0,1-5.7,3l-.1-.4v.5h-.2A6.15,6.15,0,0,1,43,44.1a4.256,4.256,0,0,0-3.1-1.3,3.817,3.817,0,0,0-2.8,1.1c-.1,0-.1.1-.2.2A5.772,5.772,0,0,1,33.2,45.5Zm6.7-3.6a5.511,5.511,0,0,1,3.7,1.5,4.923,4.923,0,0,0,1.5,1,6.969,6.969,0,0,0,5-2.6c1.4-1.9,1.2-4.4.8-6.2a9.474,9.474,0,0,0-.5-1.7l-.6-1.5,2,1.5.1-.1L49.1,31a3.339,3.339,0,0,0-.3,1.5,2.026,2.026,0,0,0,.6,1.4,2.41,2.41,0,0,1,.9,1.8,2.8,2.8,0,0,1-.2,1.1v.1c-.5,1.4-2.3,3-7.3,3H41.5c-3.9-.3-5.4-1.7-5.9-2.8a3.121,3.121,0,0,1-.3-1.4,2.41,2.41,0,0,1,.9-1.8,1.445,1.445,0,0,0,.6-1.4,5.665,5.665,0,0,0-.3-1.5l-2.8,2.8.1.1,2-1.5-.6,1.5a12.042,12.042,0,0,0-.7,3.9c0,2.3.7,4.1,2.3,5.2A4.821,4.821,0,0,1,39.9,41.9Z"/><path class="a" d="M1.8,37H.9V11.1L8.1,3.8l7.1,7.3V35.3h-.9V11.4L8.1,5.1,1.8,11.4Z"/><path class="a" d="M28.6,35.3h-.9V11.4L21.5,5.1l-6.3,6.3V35.3h-.9V11.1l7.2-7.3,7.1,7.3Z"/><path class="a" d="M41.8,39.3h-.9V11.4l-6-6.1-6.1,6.1V35.3H28V11.1L34.9,4l6.9,7.1Z"/><path class="a" d="M43.2,36h-.9V33.2l.9-.8Z"/><path class="a" d="M42.3,35V11.3l9.2,9.3Zm.9-21.5V31.9l7.1-11.1Z"/><rect class="a" width="11.5" height="0.9" transform="translate(42.366 28.134) rotate(-57.379)"/><rect class="a" width="5.5" height="0.9" transform="translate(42.333 19.868) rotate(-57.379)"/><path class="a" d="M26.5,62.6A25.649,25.649,0,0,1,.9,37h.9a24.725,24.725,0,0,0,49.3,2.7h0a.749.749,0,0,1,.1-.5V39l.4.2h.5v.1h0a.749.749,0,0,1-.1.5h0A25.58,25.58,0,0,1,26.5,62.6Z"/><rect class="a" width="0.9" height="35" transform="translate(42.3 4.4)"/><path class="a" d="M51.9,10.2a14.269,14.269,0,0,1-3.5-.6c-1.9-.5-3.7-1-5.5,0l-.7.4V4.3l.3-.3c2.1-1.2,4.2-.6,6.2,0,1.9.5,3.7,1,5.5,0l1.9-1.1L54.7,4.7a11.969,11.969,0,0,1-2.8,2.7,6.686,6.686,0,0,0,2.5,1.3l1.3.2-1.1.6A5.443,5.443,0,0,1,51.9,10.2ZM45.2,8a14.269,14.269,0,0,1,3.5.6,9.527,9.527,0,0,0,4.4.5A8.533,8.533,0,0,1,51,7.7l-.5-.4L51,7a8.961,8.961,0,0,0,1.9-1.5,9.429,9.429,0,0,1-4.4-.6c-1.8-.5-3.5-1-5.2-.2V8.4A3.807,3.807,0,0,1,45.2,8Z"/><rect class="a" width="9.3" height="0.9" transform="translate(16 20.2)"/><rect class="a" width="6.4" height="0.9" transform="translate(17.1 26.2)"/><path class="a" d="M19.8,37.9l-5-20.5L10,36.7l-.9-.2,5.7-22.9,5.9,24.1Z"/><rect class="a" width="4.8" height="0.9" transform="matrix(0.695, -0.719, 0.719, 0.695, 11.103, 28.651)"/><rect class="a" width="5.2" height="0.9" transform="matrix(0.695, -0.719, 0.719, 0.695, 10.827, 35.095)"/><rect class="a" width="0.9" height="4.8" transform="matrix(0.719, -0.695, 0.695, 0.719, 14.43, 25.782)"/><rect class="a" width="0.9" height="7.8" transform="matrix(0.719, -0.695, 0.695, 0.719, 14.402, 32.028)"/><rect class="a" width="9.3" height="0.9" transform="translate(29.4 20.2)"/><rect class="a" width="6.4" height="0.9" transform="translate(30.5 26.2)"/><path class="a" d="M33.2,37.9l-1.1-4.7-4-15.8L23.3,36.8l-.9-.2.1-.1,5.6-22.9.5,1.9,5.5,22.2v.1h-.5Z"/><rect class="a" width="4.8" height="0.9" transform="matrix(0.695, -0.719, 0.719, 0.695, 24.501, 28.647)"/><rect class="a" width="5.2" height="0.9" transform="matrix(0.695, -0.719, 0.719, 0.695, 24.15, 35.159)"/><rect class="a" width="0.9" height="4.8" transform="matrix(0.719, -0.695, 0.695, 0.719, 27.828, 25.776)"/><rect class="a" width="0.9" height="7.8" transform="matrix(0.719, -0.695, 0.695, 0.719, 27.8, 32.023)"/><rect class="a" width="9.3" height="0.9" transform="translate(2.6 20.2)"/><rect class="a" width="6.4" height="0.9" transform="translate(3.7 26.2)"/><rect class="a" width="0.9" height="22.9" transform="translate(0.855 15.65) rotate(-13.94)"/><rect class="a" width="0.9" height="4.8" transform="matrix(0.719, -0.695, 0.695, 0.719, 0.95, 25.83)"/><rect class="a" width="0.9" height="7.8" transform="matrix(0.719, -0.695, 0.695, 0.719, 0.994, 32.007)"/><path class="a" d="M11.2,12.9H5V11.8a3.1,3.1,0,1,1,6.2-.1v1.2ZM5.9,12h4.4v-.2a2.2,2.2,0,0,0-4.4,0V12Z"/><path class="a" d="M24.6,12.9H18.4V11.8a3.1,3.1,0,1,1,6.2,0v1.1ZM19.3,12h4.4v-.2a2.2,2.2,0,0,0-4.4,0V12Z"/><path class="a" d="M38,12.9H31.8V11.8a3.1,3.1,0,1,1,6.2,0v1.1ZM32.7,12H37v-.2a2.2,2.2,0,0,0-4.4,0V12Z"/><rect class="a" width="0.9" height="13.5" transform="translate(14.3 15.5)"/><rect class="a" width="0.9" height="13.5" transform="translate(27.7 15.5)"/><path class="a" d="M45.2,3.6a12.759,12.759,0,0,1,3.4.6,12.758,12.758,0,0,0,3.3.6,4.645,4.645,0,0,0,2.3-.6l1-.5-.7.9a13.162,13.162,0,0,1-3,2.8,5.942,5.942,0,0,0,2.8,1.5L55,9l-.6.3a4.958,4.958,0,0,1-2.6.6,12.759,12.759,0,0,1-3.4-.6,12.758,12.758,0,0,0-3.3-.6,4.419,4.419,0,0,0-2.2.5v3.1l8.2,8.4L43,33.5V36h0v3.2c5,0,6.3-1.7,6.6-2.6h0a3.217,3.217,0,0,0,.1-.8,1.75,1.75,0,0,0-.7-1.4,2.142,2.142,0,0,1-.8-1.9,6.156,6.156,0,0,1,.7-2.4l.1-.3,4,4-1.1.9-.5-.4c.1.3.2.7.3,1.1a11.668,11.668,0,0,1,.2,3.8v.5h0A25.268,25.268,0,0,1,26.7,62.3,25.4,25.4,0,0,1,1.1,37h0V11.2L8,4.1l6.7,6.8,6.7-6.8,6.7,6.8,6.7-6.8,6.9,7.1V4.7l.8-.4a4.751,4.751,0,0,1,2.7-.7m4.4,32.8h0M59.5,0,54.6,2.7l-1,.5a3.743,3.743,0,0,1-1.8.5,12.238,12.238,0,0,1-3-.6,15.142,15.142,0,0,0-3.7-.7,6.806,6.806,0,0,0-3.1.8l-.8.4-.6.4V8.4l-5-5.1-.8-.8-.8.8-5.9,6-5.9-6-.8-.8-.8.8-5.9,6-5.9-6-.7-.8-.8.8L.4,10.4l-.4.3V37a26.531,26.531,0,0,0,52.9,2.9h0v-.5a12.906,12.906,0,0,0-.1-3.9l.9-.8,1-.8-.9-.9-4-4-1.1-1.1L48,29.2l-.1.3a6.775,6.775,0,0,0-.8,2.9,3.79,3.79,0,0,0,1.1,2.7c.3.4.4.4.4.6a.756.756,0,0,1-.1.4h0c-.1.4-.9,1.6-4.4,1.8V33.7l8-12.6.5-.8-.6-.5-7.9-8V10a3.6,3.6,0,0,1,1.1-.2,12.238,12.238,0,0,1,3,.6,15.142,15.142,0,0,0,3.7.7,6.5,6.5,0,0,0,3.1-.8l.6-.3,2.8-1.6-3.2-.6-.6-.1a7.6,7.6,0,0,1-1.1-.4,12.865,12.865,0,0,0,1.9-2.1l.7-.9L59.5,0Z"/><path class="a" d="M74.6,28.2a5.968,5.968,0,0,0-.9-1.5,4.508,4.508,0,0,0-1.4-1,3.425,3.425,0,0,0-1.8-.4h-4V22.2H74c.1,0,.1,0,.1-.1,0,0,.1,0,.1-.2V20c0-.1,0-.1-.1-.2l-.1-.1H64.1v7.2c0,.1,0,.1.1.1l.1.1h3l-3.6,7.2h6.8a3.922,3.922,0,0,0,1.8-.4,7.1,7.1,0,0,0,1.4-1,3.766,3.766,0,0,0,.9-1.5,5.079,5.079,0,0,0,.3-1.7A4.935,4.935,0,0,0,74.6,28.2Zm-2.3,2.7a2.177,2.177,0,0,1-.5.8,5.547,5.547,0,0,1-.8.6,2.959,2.959,0,0,1-1,.2H67.2l2.6-5.1h.1a2.959,2.959,0,0,1,1,.2,2.177,2.177,0,0,1,.8.5,5.547,5.547,0,0,1,.6.8,2.6,2.6,0,0,1,0,2Z"/><path class="a" d="M87.4,19.9H85.3c-.1,0-.2,0-.2.1-.1,0-.1.1-.1.2v.1c-.4,1.1-.8,2.2-1.1,3.2l-1.2,3.3-.2.5-.2-.5-.6-1.5c-.2-.5-.4-1.1-.6-1.6s-.4-1.1-.6-1.6a8.8,8.8,0,0,1-.5-1.5l-.2-.4a.354.354,0,0,0-.3-.3H77.6c-.2,0-.2.1-.2.1v.1h0l1.9,4.7c.6,1.6,1.3,3.1,1.9,4.7v.1l-.4,1.1c0,.1-.1.1-.1.2l-.1.2a5.938,5.938,0,0,1-.4.8,2.181,2.181,0,0,1-.4.5c-.2.1-.3.2-.5.2h-.7v2.2c0,.2.1.2.2.2a3.339,3.339,0,0,0,1.5-.3,4.44,4.44,0,0,0,1.1-.8,5.025,5.025,0,0,0,.8-1.2c.2-.5.5-1,.7-1.5l.3-.8a1.628,1.628,0,0,1,.3-.6q.75-2.1,1.8-4.5c.6-1.6,1.3-3.2,2-4.9l.1-.2v-.3Z"/><path class="a" d="M100.5,34.3l-4.9-7.2,4.8-7.1a.1.1,0,0,1,.1-.1H98.1a.367.367,0,0,0-.3.1c-.1,0-.2.1-.2.3l-3.3,4.9-3.3-5c-.1-.2-.2-.2-.2-.3-.1,0-.1-.1-.2-.1H88.1a.31.31,0,0,0,.1.2c.7,1.1,1.5,2.2,2.3,3.4L92.9,27l.1.1-.1.1c-.7,1.1-1.5,2.2-2.2,3.3s-1.5,2.2-2.2,3.3c-.1.1-.2.2-.2.3-.1.1-.1.2-.2.4v.1h2.4a.373.373,0,0,0,.4-.3l3.4-5.1,3.5,5.1c.2.3.3.3.4.3h2.4C100.6,34.5,100.5,34.4,100.5,34.3Z"/><path class="a" d="M113.8,19.9a.349.349,0,0,0-.2-.1H102.8c-.1,0-.1,0-.2.1l-.1.1v1.8c0,.1,0,.2.1.2a.349.349,0,0,0,.2.1H107v2.8h-3.2c-.2,0-.2.1-.2.2v1.7c0,.1,0,.1.2.1H107v7.4c0,.1,0,.1.1.2a.349.349,0,0,0,.2.1h2c.1,0,.1,0,.2-.1a.349.349,0,0,0,.1-.2V26.9h3.3V25.1c0-.1,0-.2-.2-.2h-3.2V22.1h4.1c.1,0,.2,0,.2-.1s.1-.1.1-.2V20A.1.1,0,0,1,113.8,19.9Z"/><path class="a" d="M129,34.4h0c-.9-2.3-1.8-4.5-2.7-6.7s-1.8-4.4-2.7-6.7l-.2-.6c0-.1-.1-.1-.1-.2s0-.1-.1-.2l-.1-.1h-1.6l-.1.1c-.1.2-.2.5-.3.7s-.2.5-.3.7l-5.2,12.8v.2s0,.1.2.1h13.4c-.2,0-.2,0-.2-.1Zm-10.3-2.1,3.5-9,.2.5c.6,1.4,1.1,2.8,1.6,4.2s1.1,2.8,1.6,4.2l.1.3h-7Z"/><path class="a" d="M74.9,49a3.552,3.552,0,0,0-.4-.9,2.407,2.407,0,0,0-.6-.8,4.62,4.62,0,0,0-.7-.7l-.2-.1.2-.2a8.342,8.342,0,0,0,.8-1.2,4.013,4.013,0,0,0,.3-1.5A4.145,4.145,0,0,0,74,42a3.805,3.805,0,0,0-.9-1.3,3.528,3.528,0,0,0-1.3-.8,4.146,4.146,0,0,0-1.6-.3H63.6v.1l3.2,6.1H64.2c-.1,0-.1,0-.1.1L64,46v8.1h6.9a4.146,4.146,0,0,0,1.6-.3,3.805,3.805,0,0,0,1.3-.9,3.39,3.39,0,0,0,.9-1.4,4.529,4.529,0,0,0,.3-1.6A2.769,2.769,0,0,0,74.9,49Zm-5-7.5a1.884,1.884,0,0,1,.8.2,4.347,4.347,0,0,1,.7.4,1.612,1.612,0,0,1,.4.7,1.077,1.077,0,0,1,.2.8,2.92,2.92,0,0,1-.2.9,1.794,1.794,0,0,1-.5.7,2.507,2.507,0,0,1-.7.4,2.769,2.769,0,0,1-.9.1h-.5L67,41.5Zm2.6,9.3a3.508,3.508,0,0,1-.5.8,1.794,1.794,0,0,1-.7.5,2.92,2.92,0,0,1-.9.2h-4V47.6h4.1a.6.6,0,0,1,.4.1.908.908,0,0,1,.7.3,2.651,2.651,0,0,1,.6.5,1.612,1.612,0,0,1,.4.7,2.2,2.2,0,0,1,.1.8A3.091,3.091,0,0,1,72.5,50.8Z"/><path class="a" d="M80.6,39.6c-.1,0-.1-.1-.2-.1H78.3V54c0,.1,0,.2.2.2h2c.2,0,.2-.1.2-.2V39.7A.1.1,0,0,0,80.6,39.6Z"/><path class="a" d="M89.9,46.4l.1-.1a2.651,2.651,0,0,1,.5-.6,5.582,5.582,0,0,0,.5-.8,5.547,5.547,0,0,1,.6-.8,2.7,2.7,0,0,1,.7-.8,11.3,11.3,0,0,1,1.1-1.1,1.922,1.922,0,0,1,1.2-.4c.1,0,.1,0,.1-.1s.1-.1.1-.2V39.6h-.1a4.844,4.844,0,0,0-1.8.3,6.376,6.376,0,0,0-1.4.8A3.745,3.745,0,0,0,90.3,42c-.4.5-.7,1.1-1.1,1.7-.2.3-.5.6-.7.9a2.336,2.336,0,0,1-.7.7,1.794,1.794,0,0,1-.7.5,1.072,1.072,0,0,1-.6.2h-.2V39.8c0-.1,0-.1-.1-.2s-.1-.1-.2-.1H84.1c-.1,0-.2,0-.2.1a.349.349,0,0,0-.1.2V54a.265.265,0,0,0,.3.3H86a.265.265,0,0,0,.3-.3V48.7h.2c.3,0,.6-.1.9-.1a2.994,2.994,0,0,0,.8-.4l.1-.1L93.2,54l.2.2c.1,0,.1.1.2.1h3Z"/><path class="a" d="M101.6,39.6c-.1,0-.1-.1-.2-.1H99.3V54c0,.1,0,.2.2.2h2c.2,0,.2-.1.2-.2V39.7Z"/><path class="a" d="M117.1,39.6c-.1,0-.1-.1-.2-.1h-2c-.1,0-.1,0-.2.1l-.1.1v3.9h-7.4V39.7c0-.1,0-.1-.1-.1s-.1-.1-.2-.1h-2c-.1,0-.1,0-.1.1l-.1.1V54c0,.1,0,.2.2.2h2c.2,0,.2-.1.2-.2V50.2h7.4V54c0,.1,0,.2.2.2h2c.2,0,.2-.1.2-.2V39.7C117.2,39.6,117.2,39.6,117.1,39.6Zm-2.4,8.6h-7.4V45.7h7.4Z"/><path class="a" d="M130.1,39.6h-9c-.1,0-.2,0-.2.2V54c0,.1,0,.1.1.1h2.2c.1,0,.1,0,.2-.1V41.8h6.7c.1,0,.1,0,.1-.1,0,0,.1,0,.1-.2V39.6C130.2,39.7,130.2,39.6,130.1,39.6Z"/><path class="a" d="M134.9,39.6c-.1,0-.1-.1-.2-.1h-2.1V54c0,.1,0,.2.2.2h2c.2,0,.2-.1.2-.2V39.7A.1.1,0,0,0,134.9,39.6Z"/><path class="a" d="M150.1,49a3.552,3.552,0,0,0-.4-.9,2.407,2.407,0,0,0-.6-.8,4.62,4.62,0,0,0-.7-.7l-.2-.1.2-.2a8.341,8.341,0,0,0,.8-1.2,4.013,4.013,0,0,0,.3-1.5,4.146,4.146,0,0,0-.3-1.6,3.805,3.805,0,0,0-.9-1.3,3.528,3.528,0,0,0-1.3-.8,4.146,4.146,0,0,0-1.6-.3h-6.6v.1l3.2,6.1h-2.6c-.1,0-.1,0-.1.1l-.1.1v8.1h6.9a4.146,4.146,0,0,0,1.6-.3,3.805,3.805,0,0,0,1.3-.9,3.39,3.39,0,0,0,.9-1.4,4.529,4.529,0,0,0,.3-1.6C150.2,49.6,150.1,49.3,150.1,49Zm-5-7.5a1.884,1.884,0,0,1,.8.2,4.347,4.347,0,0,1,.7.4,1.612,1.612,0,0,1,.4.7,2.353,2.353,0,0,1,.2.8,2.92,2.92,0,0,1-.2.9,1.794,1.794,0,0,1-.5.7,2.507,2.507,0,0,1-.7.4,2.769,2.769,0,0,1-.9.1h-.5l-2.2-4.2h2.9Zm2.6,9.3a3.508,3.508,0,0,1-.5.8,1.794,1.794,0,0,1-.7.5,2.92,2.92,0,0,1-.9.2h-4V47.6h4a.6.6,0,0,1,.4.1.908.908,0,0,1,.7.3,2.652,2.652,0,0,1,.6.5,1.612,1.612,0,0,1,.4.7,2.2,2.2,0,0,1,.1.8A1.185,1.185,0,0,1,147.7,50.8Z"/></svg>