<?xml version="1.0" encoding="utf-8"?>
<!-- Generator: Adobe Illustrator 22.0.1, SVG Export Plug-In . SVG Version: 6.00 Build 0)  -->
<svg version="1.1" id="Layer_1" xmlns="http://www.w3.org/2000/svg" xmlns:xlink="http://www.w3.org/1999/xlink" x="0px" y="0px"
	 viewBox="0 0 31 31" style="enable-background:new 0 0 31 31;" xml:space="preserve">
<style type="text/css">
	.st0{fill:#ffffff;}
</style>
<title>Trip advisor with circle</title>
<g id="Layer_2_1_">
	<g id="Layer_1-2">
		<g>
			<path class="st0" d="M17.4,10.6c1.3,0.2,2.5,0.7,3.7,1.4c0.1,0,0.1,0,0.2,0H24l0,0c0,0.1-0.1,0.1-0.1,0.2
				c-0.3,0.4-0.5,0.9-0.7,1.4c0,0,0,0.1,0,0.2c1.4,1.9,1,4.6-0.9,6c-0.1,0.1-0.2,0.1-0.3,0.2c-1,0.6-2.2,0.8-3.3,0.5
				c-0.8-0.2-1.5-0.6-2.1-1.2l-0.2-0.3l-0.9,1.4l-0.9-1.3l0,0l0,0c-0.7,0.8-1.6,1.3-2.6,1.5c-0.6,0.1-1.2,0.1-1.8-0.1
				c-0.8-0.2-1.5-0.7-2.1-1.3c-0.5-0.6-0.9-1.4-1-2.2c-0.1-0.6-0.1-1.1,0.1-1.7c0.1-0.5,0.4-1,0.7-1.4c0,0,0-0.1,0-0.1
				c-0.1-0.5-0.3-0.9-0.6-1.3c-0.1-0.1-0.2-0.2-0.3-0.3l0,0h2.6c0,0,0.1,0,0.1,0c0.6-0.4,1.2-0.7,1.9-0.9c0.5-0.2,1-0.3,1.5-0.4
				C14.5,10.5,16,10.5,17.4,10.6L17.4,10.6z M16.4,16.3c0,1.9,1.5,3.4,3.4,3.4c1.9,0,3.4-1.5,3.4-3.4c0-1.9-1.5-3.4-3.4-3.4
				c0,0-0.1,0-0.1,0C17.8,12.9,16.4,14.4,16.4,16.3z M11.3,12.9c-1.9,0-3.4,1.5-3.4,3.4c0,1.9,1.5,3.4,3.4,3.4
				c1.9,0,3.4-1.5,3.4-3.4C14.7,14.4,13.1,12.9,11.3,12.9C11.3,12.9,11.3,12.9,11.3,12.9z M11.4,12c2.1,0.1,3.8,1.6,4.1,3.7
				c0.3-2,2-3.6,4-3.7c-1.2-0.5-2.5-0.8-3.8-0.8C14.2,11.2,12.8,11.4,11.4,12L11.4,12z"/>
		</g>
		<g>
			<path class="st0" d="M19.7,14.1c1.2,0,2.1,0.9,2.1,2.1c0,1.2-0.9,2.1-2.1,2.1c-1.2,0-2.1-0.9-2.1-2.1c0,0,0,0,0,0
				C17.6,15.1,18.6,14.1,19.7,14.1L19.7,14.1z M21.1,16.2c0-0.8-0.6-1.4-1.4-1.4c-0.8,0-1.4,0.6-1.4,1.4c0,0.8,0.6,1.4,1.4,1.4
				S21.1,17,21.1,16.2C21.1,16.2,21.1,16.2,21.1,16.2z"/>
		</g>
		<g>
			<path class="st0" d="M11.2,14.1c1.2,0,2.1,0.9,2.1,2.1c0,1.2-0.9,2.1-2.1,2.1s-2.1-0.9-2.1-2.1c0,0,0,0,0,0
				C9.1,15.1,10,14.1,11.2,14.1C11.2,14.1,11.2,14.1,11.2,14.1z M12.6,16.2c0-0.8-0.6-1.4-1.4-1.4c-0.8,0-1.4,0.6-1.4,1.4
				c0,0.8,0.6,1.4,1.4,1.4c0,0,0,0,0,0C12,17.6,12.6,17,12.6,16.2z"/>
		</g>
		<g>
			<path class="st0" d="M19.7,15.5c0.4,0,0.7,0.4,0.6,0.8c0,0.3-0.3,0.6-0.6,0.6c-0.4,0-0.7-0.2-0.8-0.6c0-0.4,0.2-0.7,0.6-0.8
				C19.6,15.5,19.7,15.5,19.7,15.5z"/>
		</g>
		<g>
			<path class="st0" d="M11.2,15.5c0.4,0,0.7,0.3,0.7,0.7c0,0.4-0.3,0.7-0.7,0.7s-0.7-0.3-0.7-0.7c0,0,0,0,0,0
				C10.5,15.8,10.8,15.5,11.2,15.5C11.2,15.5,11.2,15.5,11.2,15.5z"/>
		</g>
		<g>
			<path class="st0" d="M15.5,31C7,31,0,24,0,15.5S7,0,15.5,0S31,7,31,15.5S24,31,15.5,31z M15.5,1C7.5,1,1,7.5,1,15.5
				S7.5,30,15.5,30S30,23.5,30,15.5S23.5,1,15.5,1z"/>
		</g>
	</g>
</g>
</svg>
