<svg xmlns="http://www.w3.org/2000/svg" width="33.614" height="23.53" viewBox="0 0 33.614 23.53"><defs><style>.a{fill:#fff;}</style></defs><g transform="translate(0 0)"><path class="a" d="M31.69,2.431H1.925A1.926,1.926,0,0,0,0,4.356V24.036a1.926,1.926,0,0,0,1.925,1.925H31.69a1.926,1.926,0,0,0,1.925-1.925V4.354A1.926,1.926,0,0,0,31.69,2.431Zm-.05,21.554-29.665.05L1.925,4.4l29.715-.05V23.985Z" transform="translate(0 -2.431)"/><path class="a" d="M3.159,7.674l1,7.147H6.606l4.567-8.85H8.6l-1.939,4.1c-.274.583-.512,1.11-.718,1.593-.037-.5-.079-.993-.129-1.493l-.392-4.2H1.506L5.577,9.194Z" transform="translate(1.618 1.371)"/><path class="a" d="M8.209,14.822l1.678-8.85h-2.3L5.9,14.822Z" transform="translate(6.34 1.372)"/><path class="a" d="M7.749,14.368a4.464,4.464,0,0,0,2.541.645c2.18,0,3.644-1.232,3.644-3.063a2.744,2.744,0,0,0-1.786-2.425c-.672-.377-1.081-.631-1.081-.95,0-.3.313-.62,1.056-.62A3.063,3.063,0,0,1,13.5,8.3l.261.143.736-1.97-.193-.108a4.257,4.257,0,0,0-2.093-.452c-2.087,0-3.545,1.22-3.545,2.966a2.9,2.9,0,0,0,1.871,2.441c.821.427.983.67.983.946,0,.531-.572.72-1.064.72a3.655,3.655,0,0,1-1.833-.5l-.259-.153-.78,1.921Z" transform="translate(8.151 1.304)"/><path class="a" d="M13,14.822l.989-2.163h2l.174,2.163H18.55l-1.037-8.85H14.836l-4.306,8.85ZM15.4,9.355c.091-.2.185-.427.28-.662.017.209.031.407.044.577l.135,1.512h-1.12Z" transform="translate(11.31 1.372)"/></g></svg>