<?xml version="1.0" encoding="utf-8"?>
<!-- Generator: Adobe Illustrator 22.0.1, SVG Export Plug-In . SVG Version: 6.00 Build 0)  -->
<svg version="1.1" id="Layer_1" xmlns="http://www.w3.org/2000/svg" xmlns:xlink="http://www.w3.org/1999/xlink" x="0px" y="0px"
	 viewBox="0 0 31 31" style="enable-background:new 0 0 31 31;" xml:space="preserve">
<style type="text/css">
	.st0{fill:#ffffff;}
</style>
<title>Facebook with circle</title>
<g id="Layer_2_1_">
	<g id="Layer_1-2">
		<g>
			<path class="st0" d="M16.4,13.2v-1.9c0-0.5,0.4-0.9,0.9-0.9l0,0h0.9V8h-1.9c-1.6,0-2.8,1.3-2.8,2.8v2.4h-1.9v2.3h1.9V23h2.8v-7.5
				h1.9l0.9-2.3H16.4z"/>
		</g>
		<g>
			<path class="st0" d="M15.5,31C7,31,0,24,0,15.5S7,0,15.5,0S31,7,31,15.5S24,31,15.5,31z M15.5,1C7.5,1,1,7.5,1,15.5
				S7.5,30,15.5,30S30,23.5,30,15.5S23.5,1,15.5,1z"/>
		</g>
	</g>
</g>
</svg>
