<svg xmlns="http://www.w3.org/2000/svg" width="33.955" height="23.77" viewBox="0 0 33.955 23.77"><defs><style>.a{fill:#fff;}</style></defs><g transform="translate(0 -2.444)"><g transform="translate(0 2.444)"><path class="a" d="M32.008,2.444H1.944A1.945,1.945,0,0,0,0,4.388V24.269a1.945,1.945,0,0,0,1.944,1.944H32.008a1.947,1.947,0,0,0,1.946-1.944V4.388A1.947,1.947,0,0,0,32.008,2.444ZM31.96,24.217l-29.966.052L1.944,4.438l30.016-.05V24.217Z" transform="translate(0 -2.444)"/><path class="a" d="M9.313,17.894a6.375,6.375,0,0,0,4.053-1.448,6.44,6.44,0,1,0-.006-9.894A6.393,6.393,0,1,0,9.313,17.894Zm13.226-6.4a5.055,5.055,0,0,1-8.206,3.955,6.368,6.368,0,0,0,0-7.906,5.052,5.052,0,0,1,8.21,3.951Z" transform="translate(3.165 0.387)"/></g></g></svg>