<svg xmlns="http://www.w3.org/2000/svg" width="20.005" height="20.06" viewBox="0 0 20.005 20.06"><defs><style>.a{fill:#00263a;}</style></defs><g transform="translate(0 0.003)"><path class="a" d="M19.8,7.07,10.69.23a1.14,1.14,0,0,0-1.38,0L.2,7.07a.5.5,0,0,0-.19.5A.51.51,0,0,0,.37,8l.94.25v9.18h0a.5.5,0,0,0-.36.93L5.22,20H7.5a.42.42,0,0,0,.2.05.65.65,0,0,0,.2,0h4.26a.7.7,0,0,0,.14,0,.5.5,0,0,0,.13,0h1.93L19,18.32a.51.51,0,0,0,.31-.64.5.5,0,0,0-.6-.31V8.17L19.62,8a.5.5,0,0,0,.18-.89ZM5,4.72l1.26.61a.38.38,0,0,0,.21,0H13.3a.45.45,0,0,0,.2,0L15,4.72l1.2.9-2.65.7H6.13L3.78,5.63Zm2.53-1.9L8,3.06a.54.54,0,0,0,.22,0h3.41a.41.41,0,0,0,.19,0l.63-.26L14.07,4l-.87.36H6.59L5.89,4ZM9.91,1a.15.15,0,0,1,.18,0l1.44,1.08H8.47ZM2.78,6.38l3.13.92a.36.36,0,0,0,.14,0h7.69l3.48-.93,1.14.86-4.15,1H5.46l-3.84-1Zm15,11.34-3,1.05V9.16l1.73-.43,1.25,1.06ZM11.8,19H8.2V11.74h3.6Zm.5-8.24H7.7a.5.5,0,0,0-.5.5V19H5.92V10.57l1.53-1.3h4.77l1.55,1.33V19h-1V11.24a.5.5,0,0,0-.47-.5ZM13.77,9.3ZM2.39,8.49l-.08.07V8.47ZM2.31,9.87,3.56,8.8l1.36.36v9.6l-2.61-1ZM17.75,8.48l-.05-.05h.05Z"/></g></svg>