<svg xmlns="http://www.w3.org/2000/svg" width="20" height="20" viewBox="0 0 20 20"><defs><style>.a{fill:#00263a;}</style></defs><path class="a" d="M19,0H17.33V1.25H13.07V0H6.93V1.25H2.67V0H1A1,1,0,0,0,0,1V19a1,1,0,0,0,1,1H19a1,1,0,0,0,1-1V1A1,1,0,0,0,19,0Zm-.33,18.75H1.33V5H18.67Z"/><rect class="a" width="2.5" height="2.5" rx="0.2" transform="translate(2.71 11.25)"/><rect class="a" width="2.5" height="2.5" rx="0.2" transform="translate(6.74 11.25)"/><rect class="a" width="2.5" height="2.5" rx="0.2" transform="translate(10.76 11.25)"/><rect class="a" width="2.5" height="2.5" rx="0.2" transform="translate(2.71 15)"/><rect class="a" width="2.5" height="2.5" rx="0.2" transform="translate(6.74 15)"/><rect class="a" width="2.5" height="2.5" rx="0.2" transform="translate(10.76 15)"/><rect class="a" width="2.5" height="2.5" rx="0.2" transform="translate(14.79 11.25)"/><rect class="a" width="2.5" height="2.5" rx="0.2" transform="translate(6.74 7.5)"/><rect class="a" width="2.5" height="2.5" rx="0.2" transform="translate(10.76 7.5)"/><rect class="a" width="2.5" height="2.5" rx="0.2" transform="translate(14.79 7.5)"/></svg>