<svg xmlns="http://www.w3.org/2000/svg" width="14.95" height="20.006" viewBox="0 0 14.95 20.006"><defs><style>.a{fill:#00263a;}</style></defs><path class="a" d="M7.09,20A13.05,13.05,0,0,1,.71,18.56L0,18.14V13.27a2.93,2.93,0,0,1,2.06-2.74l2.17-.79V9.49A5.7,5.7,0,0,1,2.6,5.41C2.6,1.82,4.22,0,7.41,0s4.8,1.82,4.8,5.41a5.69,5.69,0,0,1-1.62,4.06v.25l2.36.82a2.9,2.9,0,0,1,2,2.73v5.05l-.95.35A19.93,19.93,0,0,1,7.1,20ZM1.55,17.26a11.77,11.77,0,0,0,5.54,1.2h0a18.37,18.37,0,0,0,6.35-1.21v-4a1.37,1.37,0,0,0-1-1.27L9.04,10.8v-2l.27-.24a4.09,4.09,0,0,0,1.36-3.15c0-2-.4-3.87-3.25-3.87S4.16,3.4,4.16,5.41A4.12,4.12,0,0,0,5.51,8.57l.27.23v2L2.57,12a1.38,1.38,0,0,0-1,1.28Z"/></svg>