<?xml version="1.0" encoding="utf-8"?>
<!-- Generator: Adobe Illustrator 24.1.2, SVG Export Plug-In . SVG Version: 6.00 Build 0)  -->
<svg version="1.1" id="Layer_1" xmlns="http://www.w3.org/2000/svg" xmlns:xlink="http://www.w3.org/1999/xlink" x="0px" y="0px"
	 viewBox="0 0 28.8 27.8" style="enable-background:new 0 0 28.8 27.8;" xml:space="preserve">
<style type="text/css">
	.st0{fill:#00263A;}
</style>
<g transform="translate(0 -1)">
	<path class="st0" d="M28.6,1.1c-0.2-0.1-0.4-0.1-0.5,0l-8.8,4.7l-8.8-4.7c0,0,0,0,0,0c0,0-0.1,0-0.1,0l0,0c0,0-0.1,0-0.1,0
		c0,0,0,0,0,0c0,0-0.1,0-0.1,0c0,0,0,0,0,0h0L0.4,4.2C0.1,4.3,0,4.5,0,4.7v23c0,0.3,0.2,0.5,0.5,0.5c0,0,0,0,0,0c0.1,0,0.1,0,0.2,0
		l9.4-3.1l8.9,3.7c0,0,0,0,0,0c0.1,0,0.2,0,0.3,0c0,0,0,0,0,0c0,0,0,0,0.1,0l9.1-4.8c0.2-0.1,0.3-0.3,0.3-0.5V1.5
		C28.8,1.3,28.7,1.2,28.6,1.1z M1.1,5.1l8.5-2.8v14.4c-0.2,0-0.5,0.1-0.7,0.1c-0.3,0.1-0.5,0.4-0.4,0.7c0.1,0.2,0.3,0.4,0.5,0.4
		c0,0,0.1,0,0.1,0c0.1,0,0.3-0.1,0.4-0.1v6.3L1.1,27V5.1z M10.7,17.6c0.2,0,0.3,0,0.5,0c0.3,0,0.5-0.2,0.5-0.5
		c0-0.3-0.2-0.5-0.5-0.5h0c-0.2,0-0.3,0-0.5,0V2.4l8,4.2V18c-0.4,0-0.8-0.1-1.2-0.1c-0.3-0.1-0.6,0.1-0.6,0.4
		c-0.1,0.3,0.1,0.6,0.4,0.6c0,0,0,0,0,0c0.5,0.1,0.9,0.1,1.4,0.2v8.4l-8-3.3L10.7,17.6z M27.8,23.1l-8,4.2V19
		c0.3-0.1,0.4-0.4,0.3-0.7c-0.1-0.1-0.2-0.2-0.3-0.3V6.7l8-4.2V23.1z"/>
	<path class="st0" d="M5.9,5.3c-1.5,0-2.7,1.2-2.7,2.7c0,1.3,0.9,2.4,2.1,2.6v1.1c0,0.3,0.2,0.5,0.5,0.5c0.3,0,0.5-0.2,0.5-0.5v-1.1
		c1.4-0.3,2.4-1.7,2.1-3.2C8.2,6.2,7.1,5.3,5.9,5.3z M5.9,9.5C5,9.5,4.3,8.8,4.3,7.9c0-0.9,0.7-1.6,1.6-1.6c0.9,0,1.6,0.7,1.6,1.6
		C7.5,8.8,6.8,9.5,5.9,9.5C5.9,9.5,5.9,9.5,5.9,9.5z"/>
	<path class="st0" d="M24.1,15.2c0.3,0.1,0.6,0,0.7-0.3c0.3-0.7,0.5-1.4,0.6-2.1c0.1-0.3-0.1-0.6-0.4-0.6s-0.6,0.1-0.6,0.4l0,0
		c-0.1,0.7-0.3,1.3-0.5,2C23.7,14.8,23.8,15.1,24.1,15.2z"/>
	<path class="st0" d="M6.8,17.7c-0.7,0.4-1.2,0.9-1.7,1.5C4.9,19.5,5,19.8,5.2,20c0.2,0.2,0.5,0.1,0.7-0.1c0.4-0.5,0.9-0.9,1.5-1.3
		c0.2-0.2,0.3-0.5,0.2-0.7C7.4,17.7,7.1,17.6,6.8,17.7L6.8,17.7z"/>
	<path class="st0" d="M4.6,20.9c-0.3-0.1-0.6,0-0.7,0.3c0,0,0,0,0,0c-0.3,0.7-0.6,1.4-0.7,2.2c0,0.3,0.2,0.6,0.5,0.6c0,0,0,0,0.1,0
		c0.3,0,0.5-0.2,0.5-0.5c0.1-0.7,0.3-1.3,0.6-1.9C5,21.3,4.9,21,4.6,20.9z"/>
	<path class="st0" d="M21.6,18.5c0.1,0,0.2,0,0.2-0.1c0.7-0.4,1.3-0.9,1.8-1.5c0.2-0.2,0.1-0.6-0.1-0.8C23.3,16,23,16,22.8,16.3
		c-0.4,0.5-0.9,0.9-1.5,1.2c-0.3,0.1-0.4,0.5-0.2,0.7C21.2,18.4,21.4,18.5,21.6,18.5L21.6,18.5z"/>
	<path class="st0" d="M15.6,17.2c-0.2-0.1-0.4-0.2-0.4-0.2c0,0-0.1,0-0.1,0c-0.6-0.1-1.1-0.3-1.7-0.3c-0.3,0-0.6,0.2-0.6,0.4
		s0.2,0.6,0.4,0.6l0,0c0.5,0.1,1,0.2,1.5,0.3c0.1,0,0.2,0.1,0.4,0.2c0.3,0.1,0.6,0,0.7-0.3C16,17.7,15.8,17.4,15.6,17.2L15.6,17.2
		L15.6,17.2z"/>
	<path class="st0" d="M25.1,11.1L25.1,11.1c0.3,0,0.5-0.2,0.6-0.5c0-0.5,0-1.1,0-1.6c0-0.2,0-0.4,0-0.6c0-0.3-0.3-0.5-0.5-0.5
		c-0.3,0-0.5,0.2-0.5,0.5c0,0,0,0,0,0c0,0.2,0,0.4,0,0.5c0,0.5,0,1.1,0,1.5C24.5,10.8,24.8,11.1,25.1,11.1
		C25.1,11.1,25.1,11.1,25.1,11.1z"/>
	<path class="st0" d="M4.4,15.8C4.6,16,5,16,5.2,15.8l0.7-0.7l0.7,0.7c0.2,0.2,0.5,0.2,0.8,0c0.2-0.2,0.2-0.5,0-0.8c0,0,0,0,0,0
		l-0.7-0.7l0.7-0.7c0.2-0.2,0.2-0.6,0-0.8c-0.2-0.2-0.5-0.2-0.7,0l-0.7,0.7l-0.7-0.7c-0.2-0.2-0.6-0.2-0.8,0c-0.2,0.2-0.2,0.5,0,0.7
		l0.7,0.7L4.4,15C4.2,15.2,4.2,15.6,4.4,15.8C4.4,15.8,4.4,15.8,4.4,15.8z"/>
</g>
</svg>
