<svg xmlns="http://www.w3.org/2000/svg" width="21.773" height="21.786" viewBox="0 0 21.773 21.786"><g transform="translate(-0.048 0.003)"><g transform="translate(0.048 -0.003)"><path d="M21.647,7.747l-10-7.511a1.2,1.2,0,0,0-1.434,0L.236,7.716a.492.492,0,0,0-.181.474A.486.486,0,0,0,.4,8.557l1.078.287V19.122l-.106-.044a.474.474,0,0,0-.368.866L5.7,21.734H8.2a.405.405,0,0,0,.193.05.517.517,0,0,0,.2-.044H13.3a.343.343,0,0,0,.287,0h2.107l5.136-1.8a.474.474,0,0,0,.293-.623.48.48,0,0,0-.623-.287h-.056V8.837l1.016-.249a.461.461,0,0,0,.349-.368.474.474,0,0,0-.162-.474ZM5.441,5.017l1.434.7a.5.5,0,0,0,.212.044h7.48a.5.5,0,0,0,.187-.037l1.689-.7,1.471,1.109-3.067.817H6.662l-2.736-.8Zm2.78-2.082.58.28a.5.5,0,0,0,.206.05h3.74a.449.449,0,0,0,.181-.037l.723-.3,1.9,1.434-1.091.455h-7.3l-.91-.455ZM10.776,1a.243.243,0,0,1,.3,0l1.689,1.247-.118.044H9.05ZM2.985,6.855,6.457,7.878a.486.486,0,0,0,.137,0h8.427l3.846-1.022,1.409,1.06L15.563,9.087H5.933L1.57,7.927Zm9.973,13.993H8.869v-8.1h4.108Zm.474-9.05H8.4a.474.474,0,0,0-.474.474v8.57H6.376v-9.35l1.745-1.465h5.3l1.751,1.5v9.35H13.924V12.266a.474.474,0,0,0-.474-.474Zm-7.056-1.77h.262l-.262.224Zm8.77.249-.293-.249h.293ZM2.723,9.211,2.4,9.486V9.124ZM2.4,10.732l1.44-1.247,1.583.424V20.637L2.4,19.483Zm13.713,9.91V9.922l1.995-.492,1.421,1.215v8.789ZM19.527,9.423l-.293-.243.293-.075Z" transform="translate(-0.048 0.003)" fill="#00263a"/></g></g></svg>