<svg xmlns="http://www.w3.org/2000/svg" width="20.176" height="20.177" viewBox="0 0 20.176 20.177"><g transform="translate(0 0.003)"><g transform="translate(0 -0.003)"><path d="M19.6,4.186,10.483.081a.966.966,0,0,0-.79,0L.576,4.186A.968.968,0,0,0,0,5.068V8.356a.288.288,0,0,0,.576,0V5.068A.389.389,0,0,1,.8,4.713L9.929.609a.4.4,0,0,1,.317,0l9.125,4.1a.389.389,0,0,1,.228.355V8.356a.288.288,0,1,0,.576,0V5.068a.968.968,0,0,0-.576-.882Z" transform="translate(0 0.003)" fill="#00263a"/><path d="M32.146,10.968a.288.288,0,1,0-.406.409l.674.677a.288.288,0,0,0,.409,0l2.363-2.372a.288.288,0,1,0-.406-.409L32.619,11.44Z" transform="translate(-22.531 -6.54)" fill="#00263a"/><path d="M13.129,34.427h-.386v-3.1a.966.966,0,0,0-.966-.966H2.306a.966.966,0,0,0-.963.966v3.1H.963A.966.966,0,0,0,0,35.4v6.1a.288.288,0,0,0,.288.288H1.64a.288.288,0,0,0,.288-.288V40.431H12.166V41.5a.288.288,0,0,0,.288.288h1.352a.288.288,0,0,0,.288-.288V35.4a.966.966,0,0,0-.966-.968Zm-11.221-3.1a.389.389,0,0,1,.4-.389h9.483a.392.392,0,0,1,.389.389v3.1h-.787V33.02a.966.966,0,0,0-.966-.966H8.408a.966.966,0,0,0-.966.966v1.407H6.658V33.02a.966.966,0,0,0-.963-.966H3.678a.966.966,0,0,0-.963.966v1.407H1.908Zm6.1,3.1V33.02a.392.392,0,0,1,.389-.389h2.018a.392.392,0,0,1,.389.389v1.407Zm-4.73,0V33.02a.389.389,0,0,1,.386-.389H5.684a.389.389,0,0,1,.386.389v1.407ZM.974,35H13.129a.389.389,0,0,1,.389.389v2.421H.576V35.392a.386.386,0,0,1,.386-.386Zm11.768,6.205V40.142a.288.288,0,0,0-.288-.288H1.64a.288.288,0,0,0-.288.288v1.066H.576V38.4H13.518v2.813Z" transform="translate(0 -21.609)" fill="#00263a"/><path d="M55.934,34.4H55.2a.314.314,0,0,0-.288-.337H54.53V32.942h1.064a.288.288,0,0,0,.288-.38l-.689-2.046a.288.288,0,0,0-.288-.2H53.567a.288.288,0,0,0-.288.2l-.66,2.046a.287.287,0,0,0,.271.38h1.064v1.115h-.386a.271.271,0,0,0-.288.34h-.726a.966.966,0,0,0-.963.968v4.407a.288.288,0,0,0,.576,0V37.689H56.32v2.084a.288.288,0,0,0,.576,0V35.366a.966.966,0,0,0-.963-.968Zm-2.159-3.49h.937l.481,1.441h-1.9Zm-1.608,6.2V35.366a.386.386,0,0,1,.386-.389h3.381a.386.386,0,0,1,.386.389V37.11Z" transform="translate(-36.72 -21.579)" fill="#00263a"/><path d="M59.594,49.17h-.686a.288.288,0,1,0,0,.576h.686a.288.288,0,1,0,0-.576Z" transform="translate(-41.724 -34.997)" fill="#00263a"/><path d="M30.485,9.2a2.306,2.306,0,1,0,1.127,2,2.479,2.479,0,0,0-.04-.438.289.289,0,1,0-.568.107,1.845,1.845,0,0,1,.032.331,1.729,1.729,0,1,1-1.729-1.729,1.712,1.712,0,0,1,.885.245.3.3,0,1,0,.294-.516Z" transform="translate(-19.218 -6.316)" fill="#00263a"/></g></g></svg>