<svg xmlns="http://www.w3.org/2000/svg" width="27.959" height="28" viewBox="0 0 27.959 28"><defs><style>.a{fill:#fff;}</style></defs><g transform="translate(-0.344 0)"><g transform="translate(0.344 0)"><path class="a" d="M22.316,43.039a2.737,2.737,0,0,0-1.985-.911,2.83,2.83,0,0,0-2.009.9l-1.856,1.851c-.153-.082-.305-.159-.452-.235-.211-.106-.411-.206-.581-.311A20.173,20.173,0,0,1,10.6,39.931a11.9,11.9,0,0,1-1.586-2.5c.482-.441.928-.9,1.363-1.339.164-.165.329-.335.493-.5a2.7,2.7,0,0,0,0-4.065l-1.6-1.6c-.182-.182-.37-.37-.546-.558C8.368,29,8,28.622,7.616,28.27a2.78,2.78,0,0,0-1.967-.864,2.876,2.876,0,0,0-2,.864l-.012.012-2,2.015A4.3,4.3,0,0,0,.369,33.028a10.3,10.3,0,0,0,.752,4.359,25.3,25.3,0,0,0,4.493,7.5,27.64,27.64,0,0,0,9.2,7.209,14.336,14.336,0,0,0,5.168,1.527c.123.006.253.012.37.012a4.425,4.425,0,0,0,3.389-1.457c.006-.012.018-.018.023-.029a13.355,13.355,0,0,1,1.028-1.063c.253-.241.511-.493.764-.758a2.931,2.931,0,0,0,.887-2.033,2.824,2.824,0,0,0-.9-2.015Zm2.1,6.186c-.006,0-.006.006,0,0-.229.247-.464.47-.717.717a15.446,15.446,0,0,0-1.134,1.175,2.831,2.831,0,0,1-2.208.934c-.088,0-.182,0-.27-.006a12.735,12.735,0,0,1-4.581-1.375,26.09,26.09,0,0,1-8.669-6.791,23.852,23.852,0,0,1-4.229-7.044,8.391,8.391,0,0,1-.658-3.678,2.7,2.7,0,0,1,.81-1.745l2-2a1.335,1.335,0,0,1,.893-.417,1.256,1.256,0,0,1,.857.411l.018.018c.358.335.7.681,1.057,1.052.182.188.37.376.558.57l1.6,1.6a1.121,1.121,0,0,1,0,1.821c-.17.17-.335.341-.505.505-.493.505-.963.975-1.474,1.433-.012.012-.023.018-.029.029a1.2,1.2,0,0,0-.305,1.334l.018.053a12.877,12.877,0,0,0,1.9,3.1l.006.006a21.559,21.559,0,0,0,5.215,4.747,8.021,8.021,0,0,0,.722.394c.211.106.411.206.581.311.023.012.047.029.07.041a1.273,1.273,0,0,0,.581.147,1.256,1.256,0,0,0,.893-.405l2.009-2.009a1.329,1.329,0,0,1,.887-.441,1.2,1.2,0,0,1,.846.429l.012.012,3.236,3.237A1.162,1.162,0,0,1,24.419,49.225Z" transform="translate(-0.344 -25.632)"/><path class="a" d="M245.663,87.659a8.333,8.333,0,0,1,6.785,6.785.869.869,0,0,0,.861.725,1.156,1.156,0,0,0,.149-.013.875.875,0,0,0,.719-1.01,10.076,10.076,0,0,0-8.21-8.21.879.879,0,0,0-1.01.712A.865.865,0,0,0,245.663,87.659Z" transform="translate(-231.086 -81.057)"/><path class="a" d="M263.31,13.533A16.591,16.591,0,0,0,249.791.014a.873.873,0,1,0-.285,1.722,14.819,14.819,0,0,1,12.082,12.082.869.869,0,0,0,.861.725,1.155,1.155,0,0,0,.149-.013A.858.858,0,0,0,263.31,13.533Z" transform="translate(-235.364 0)"/></g></g></svg>