<svg xmlns="http://www.w3.org/2000/svg" width="100" height="52.021" viewBox="0 0 100 52.021"><defs><style>.a{fill:#fff;}</style></defs><g transform="translate(-663.827 -141.679)"><g transform="translate(744.128 141.679)"><path class="a" d="M743.524,167a3.368,3.368,0,0,1-2.52-1.166,2.021,2.021,0,0,0-3.228,0,3.3,3.3,0,0,1-5.039,0,2.1,2.1,0,0,0-1.615-.8v-1.311a3.365,3.365,0,0,1,2.52,1.166,2.021,2.021,0,0,0,3.228,0,3.3,3.3,0,0,1,5.039,0,2.023,2.023,0,0,0,3.229,0,3.367,3.367,0,0,1,2.52-1.166v1.311a2.1,2.1,0,0,0-1.615.8A3.367,3.367,0,0,1,743.524,167Z" transform="translate(-730.352 -137.727)"/><path class="a" d="M743.524,163.943a3.368,3.368,0,0,1-2.52-1.168,2.021,2.021,0,0,0-3.228,0,3.3,3.3,0,0,1-5.039,0,2.1,2.1,0,0,0-1.615-.8V160.66a3.369,3.369,0,0,1,2.52,1.166,2.021,2.021,0,0,0,3.228,0,3.3,3.3,0,0,1,5.039,0,2.023,2.023,0,0,0,3.229,0,3.367,3.367,0,0,1,2.52-1.166v1.311a2.1,2.1,0,0,0-1.615.8A3.368,3.368,0,0,1,743.524,163.943Z" transform="translate(-730.352 -138.275)"/><path class="a" d="M748.736,143.658a11.942,11.942,0,0,0,1.418-1.811l.014-.024-.071.048a6.545,6.545,0,0,1-1.852.861c-.882.173-1.844.248-4.665-.62-3.036-.934-4.367-.071-4.421-.033h0v16.293c-2.333-.066-3.276-.645-3.636-1a1.147,1.147,0,0,1-.38-.873c0-.164.027-.21.294-.492a2.7,2.7,0,0,0,.879-2.082,5.355,5.355,0,0,0-.637-2.23l-.668-1.185-4.54,4.607,1.469,1.2a8.61,8.61,0,0,0,.164,4.256,3.251,3.251,0,0,0-.863-.11v1.313a2.1,2.1,0,0,1,1.615.8,3.691,3.691,0,0,0,1.774,1.08,3.268,3.268,0,0,0,.745.086,3.04,3.04,0,0,0,1.418-.328,4.69,4.69,0,0,0,1.1-.839,2.021,2.021,0,0,1,3.228,0,4.508,4.508,0,0,0,1.17.872,3.049,3.049,0,0,0,1.35.295,3.122,3.122,0,0,0,1.1-.192,4.073,4.073,0,0,0,1.417-.974,2.1,2.1,0,0,1,1.615-.8V160.46a3.287,3.287,0,0,0-.645.066,8.64,8.64,0,0,0,.146-4.213l1.469-1.2-4.54-4.607-.667,1.185a5.354,5.354,0,0,0-.637,2.23,2.7,2.7,0,0,0,.879,2.082c.266.282.294.328.294.487a1.15,1.15,0,0,1-.38.877c-.361.354-1.3.934-3.643,1V146.778c.063-.039,1.132-.671,3.6.027a12.712,12.712,0,0,0,3.509.625,5.181,5.181,0,0,0,1.135-.14,4.721,4.721,0,0,0,1.662-.855s-.8-.244-1.11-.367c-1.265-.493-1.518-1.054-1.518-1.054A17.438,17.438,0,0,0,748.736,143.658ZM745.1,156.5c0-1.206-1.217-1.206-1.172-2.534a4.387,4.387,0,0,1,.5-1.761l2.793,2.834-.635.517-.738-.576s1.444,3.685-.183,6.276c-.149.125-.286.254-.413.375a2.023,2.023,0,0,1-3.229,0,3.3,3.3,0,0,0-5.039,0,2.1,2.1,0,0,1-1.615.8,1.824,1.824,0,0,1-1.347-.555c-2.356-2.572-.662-6.9-.662-6.9l-.738.576-.634-.517,2.793-2.834a4.386,4.386,0,0,1,.5,1.761c.045,1.328-1.172,1.328-1.172,2.534,0,.388-.022,2.908,5.491,2.908S745.1,156.883,745.1,156.5Zm2.537-10.066a9.8,9.8,0,0,1-3.822-.57,5.989,5.989,0,0,0-3.762-.107v-2.935a6.52,6.52,0,0,1,3.331.307,13.693,13.693,0,0,0,3.756.759c.051,0,.1,0,.145,0a10.658,10.658,0,0,1-1.467,1.135S746.083,145.69,747.636,146.429Z" transform="translate(-730.469 -141.679)"/></g><g transform="translate(663.827 153.993)"><path class="a" d="M676.264,161.621a5.488,5.488,0,0,0-1.041-1.681,5.1,5.1,0,0,0-1.593-1.177,4.674,4.674,0,0,0-2.031-.443h-4.608v-3.563h8.575a.171.171,0,0,0,.171-.17v-2.26a.171.171,0,0,0-.171-.171H664.378a.171.171,0,0,0-.171.171v8.214a.17.17,0,0,0,.171.17h3.5l-4.053,8.156h7.7a4.694,4.694,0,0,0,2.041-.428,5.254,5.254,0,0,0,1.626-1.184,5.452,5.452,0,0,0,1.439-3.689A5.306,5.306,0,0,0,676.264,161.621Zm-2.663,3.06a3.052,3.052,0,0,1-.605.93,3,3,0,0,1-.92.649,2.708,2.708,0,0,1-1.149.246h-3.217l2.994-5.841.143.009a3.344,3.344,0,0,1,1.157.272,3.154,3.154,0,0,1,.945.627,2.932,2.932,0,0,1,.637.906,2.677,2.677,0,0,1,.235,1.11A2.839,2.839,0,0,1,673.6,164.682Z" transform="translate(-663.827 -152.113)"/><path class="a" d="M687,152.12h-2.473a.163.163,0,0,0-.156.11l-2.8,8.023-2.849-8.01a.164.164,0,0,0-.156-.111h-2.386a.165.165,0,0,0-.152.228l4.306,10.567-.755,1.846a2.188,2.188,0,0,1-1.987,1.4.166.166,0,0,0-.178.162v2.333a.164.164,0,0,0,.157.165,3.806,3.806,0,0,0,2.672-.936,5.051,5.051,0,0,0,1.257-1.709s4.945-12.1,5.653-13.841A.162.162,0,0,0,687,152.12Z" transform="translate(-661.641 -152.12)"/><path class="a" d="M695.368,160.509l5.456-8.113a.171.171,0,0,0-.142-.267h-2.454a.51.51,0,0,0-.425.226l-3.976,5.877-3.976-5.877a.513.513,0,0,0-.424-.226h-2.455a.171.171,0,0,0-.142.267l5.457,8.113-5.457,8.066a.171.171,0,0,0,.142.267h2.518a.513.513,0,0,0,.426-.226l3.912-5.815,3.911,5.815a.514.514,0,0,0,.426.226h2.518a.171.171,0,0,0,.142-.267Z" transform="translate(-659.707 -152.118)"/><path class="a" d="M712.828,154.507v-2.2a.171.171,0,0,0-.17-.171H700.216a.171.171,0,0,0-.171.171v2.2a.171.171,0,0,0,.171.17h4.81v3.215h-3.608a.169.169,0,0,0-.17.17v1.972a.169.169,0,0,0,.17.17h3.608v8.477a.17.17,0,0,0,.171.17h2.479a.17.17,0,0,0,.17-.17V160.2h3.608a.17.17,0,0,0,.171-.17v-1.972a.17.17,0,0,0-.171-.17h-3.608v-3.215h4.812A.171.171,0,0,0,712.828,154.507Z" transform="translate(-657.331 -152.117)"/><path class="a" d="M719.862,152.13h-1.728a.169.169,0,0,0-.157.106l-6.751,16.37a.169.169,0,0,0,.157.235h15.222a.17.17,0,0,0,.157-.235l-6.742-16.37A.171.171,0,0,0,719.862,152.13Zm-.875,3.861,3.97,10.269H714.98Z" transform="translate(-655.328 -152.118)"/><g transform="translate(0 22.995)"><path class="a" d="M676.639,181.595a4.975,4.975,0,0,0-.416-1.04,4.792,4.792,0,0,0-.647-.922,5.333,5.333,0,0,0-.85-.778l-.2-.151.177-.178a4.4,4.4,0,0,0,.925-1.408,4.605,4.605,0,0,0-.028-3.489,4.553,4.553,0,0,0-.981-1.446,4.682,4.682,0,0,0-1.456-.964,4.548,4.548,0,0,0-1.8-.354h-7.382l-.012,0h-.145l3.693,7.023h-3.1a.17.17,0,0,0-.17.17v9.346a.17.17,0,0,0,.17.171h7.673a4.354,4.354,0,0,0,1.833-.39,4.839,4.839,0,0,0,1.494-1.063,5.023,5.023,0,0,0,1-1.557,4.85,4.85,0,0,0,.367-1.857A4.272,4.272,0,0,0,676.639,181.595Zm-4.709-8.3a2.364,2.364,0,0,1,.757.5,2.287,2.287,0,0,1,.5.752,2.428,2.428,0,0,1,.178.926,2.515,2.515,0,0,1-.2,1.032,2.193,2.193,0,0,1-.565.767,2.357,2.357,0,0,1-.837.472,3.227,3.227,0,0,1-1.027.157l-.581-.013-2.556-4.781h3.368A2.485,2.485,0,0,1,671.93,173.294Zm2,10.348a2.949,2.949,0,0,1-.525.854,2.524,2.524,0,0,1-.79.6,2.209,2.209,0,0,1-.985.224h-4.609V180.01h4a4.968,4.968,0,0,1,.519.024c.166.015.328.035.485.059a2.169,2.169,0,0,1,.846.3,2.623,2.623,0,0,1,.66.58,2.686,2.686,0,0,1,.441.771,2.59,2.59,0,0,1,.157.886A2.7,2.7,0,0,1,673.932,183.642Z" transform="translate(-663.827 -170.865)"/><path class="a" d="M748.995,181.595a4.979,4.979,0,0,0-.416-1.04,4.786,4.786,0,0,0-.647-.922,5.383,5.383,0,0,0-.85-.778l-.2-.151.177-.178a4.395,4.395,0,0,0,.923-1.408,4.591,4.591,0,0,0-.028-3.489,4.516,4.516,0,0,0-.981-1.446,4.677,4.677,0,0,0-1.455-.964,4.548,4.548,0,0,0-1.8-.354h-7.381l-.008,0h-.15l3.694,7.023h-3.1a.171.171,0,0,0-.171.17v9.346a.171.171,0,0,0,.171.171h7.673a4.354,4.354,0,0,0,1.833-.39,4.838,4.838,0,0,0,1.494-1.063,5.042,5.042,0,0,0,1-1.557,4.849,4.849,0,0,0,.367-1.857A4.274,4.274,0,0,0,748.995,181.595Zm-4.709-8.3a2.344,2.344,0,0,1,.756.5,2.272,2.272,0,0,1,.5.752,2.428,2.428,0,0,1,.178.926,2.514,2.514,0,0,1-.2,1.032,2.192,2.192,0,0,1-.565.767,2.357,2.357,0,0,1-.837.472,3.228,3.228,0,0,1-1.027.157l-.583-.013-2.554-4.781h3.368A2.485,2.485,0,0,1,744.285,173.294Zm2,10.348a2.924,2.924,0,0,1-.526.854,2.518,2.518,0,0,1-.789.6,2.212,2.212,0,0,1-.985.224h-4.609V180.01h4a4.967,4.967,0,0,1,.519.024c.166.015.327.035.485.059a2.177,2.177,0,0,1,.846.3,2.624,2.624,0,0,1,.66.58,2.685,2.685,0,0,1,.441.771,2.592,2.592,0,0,1,.157.886A2.7,2.7,0,0,1,746.287,183.642Z" transform="translate(-649.143 -170.865)"/><rect class="a" width="2.763" height="16.711" rx="0.283" transform="translate(16.478 0.001)"/><rect class="a" width="2.763" height="16.711" rx="0.283" transform="translate(41.044 0.001)"/><rect class="a" width="2.763" height="16.711" rx="0.283" transform="translate(79.631 0.001)"/><path class="a" d="M729.352,170.865H719.04a.167.167,0,0,0-.166.167V187.41a.167.167,0,0,0,.166.167h2.43a.168.168,0,0,0,.167-.167V173.629h7.715a.168.168,0,0,0,.168-.167v-2.429A.168.168,0,0,0,729.352,170.865Z" transform="translate(-652.69 -170.865)"/><path class="a" d="M717.358,170.865h-2.429a.167.167,0,0,0-.166.167v4.523h-8.446v-4.523a.167.167,0,0,0-.167-.167h-2.43a.167.167,0,0,0-.166.167V187.41a.167.167,0,0,0,.166.167h2.43a.167.167,0,0,0,.167-.167v-4.327h8.446v4.327a.167.167,0,0,0,.166.167h2.429a.167.167,0,0,0,.168-.167V171.032A.167.167,0,0,0,717.358,170.865Zm-2.6,9.83h-8.446V177.85h8.446Z" transform="translate(-655.754 -170.865)"/><path class="a" d="M697.62,187.576l-7.476-8.872.121-.139a7.565,7.565,0,0,0,.523-.678q.281-.409.6-.875c.211-.311.44-.636.679-.964s.5-.651.762-.953a5.922,5.922,0,0,1,1.3-1.249,2.367,2.367,0,0,1,1.31-.463.14.14,0,0,0,.13-.059.447.447,0,0,0,.09-.211v-2.038a.229.229,0,0,0-.046-.164.185.185,0,0,0-.141-.046,5.662,5.662,0,0,0-2.069.342,5.3,5.3,0,0,0-1.563.958,8.049,8.049,0,0,0-1.29,1.484c-.4.581-.822,1.229-1.257,1.924-.261.384-.513.737-.757,1.051a7.382,7.382,0,0,1-.744.827,3.633,3.633,0,0,1-.742.551,1.66,1.66,0,0,1-.79.211h-.217v-7.032a.263.263,0,0,0-.031-.126v-.02a.167.167,0,0,0-.166-.167h-2.429a.168.168,0,0,0-.167.167V187.41a.168.168,0,0,0,.167.167h2.429a.16.16,0,0,0,.125-.067.28.28,0,0,0,.072-.223v-6.05l.2-.013a5.157,5.157,0,0,0,.968-.162,2.8,2.8,0,0,0,.873-.4l.165-.113,5.674,6.965a.167.167,0,0,0,.13.061Z" transform="translate(-659.879 -170.865)"/></g></g></g></svg>