<svg xmlns="http://www.w3.org/2000/svg" xmlns:xlink="http://www.w3.org/1999/xlink" width="148.962" height="65.626" viewBox="0 0 148.962 65.626"><defs><style>.a{fill:none;}.b{opacity:0.4;clip-path:url(#a);}.c{opacity:0.5;}.d{fill:#fff;}</style><clipPath id="a"><rect class="a" width="148.962" height="65.626"/></clipPath></defs><g class="b"><g transform="translate(-53.032 -1490.66)"><g class="c" transform="translate(54.017 -1378.399)"><path class="d" d="M90.785,62.526c-5.7,0-8.862-2.532-11.394-4.747s-5.064-4.114-9.811-4.114-6.963,1.9-9.811,4.114c-2.532,2.215-5.7,4.747-11.394,4.747s-8.862-2.532-11.394-4.747-5.064-4.114-9.811-4.114-6.963,1.9-9.811,4.114C14.829,59.995,11.98,62.21,6.6,62.526V59.362c4.431,0,6.646-1.9,9.178-4.114s5.7-4.747,11.394-4.747,8.862,2.532,11.394,4.747,5.064,4.114,9.811,4.114,6.963-1.9,9.811-4.114c2.532-2.215,5.7-4.747,11.394-4.747s8.862,2.532,11.394,4.747,5.064,4.114,9.811,4.114,6.963-1.9,9.811-4.114c2.532-2.215,5.7-4.747,11.394-4.747s8.862,2.532,11.394,4.747c2.532,1.9,4.747,3.8,9.178,4.114V62.21c-5.38-.316-8.229-2.532-10.761-4.747s-5.064-4.114-9.811-4.114-6.963,1.9-9.811,4.114C99.647,59.995,96.8,62.526,90.785,62.526Z" transform="translate(-7.584 2818.559)"/><path class="d" d="M90.785,62.526c-5.7,0-8.862-2.532-11.394-4.747s-5.064-4.114-9.811-4.114-6.963,1.9-9.811,4.114c-2.532,2.215-5.7,4.747-11.394,4.747s-8.862-2.532-11.394-4.747-5.064-4.114-9.811-4.114-6.963,1.9-9.811,4.114C14.829,59.995,11.98,62.21,6.6,62.526V59.362c4.431,0,6.646-1.9,9.178-4.114s5.7-4.747,11.394-4.747,8.862,2.532,11.394,4.747,5.064,4.114,9.811,4.114,6.963-1.9,9.811-4.114c2.532-2.215,5.7-4.747,11.394-4.747s8.862,2.532,11.394,4.747,5.064,4.114,9.811,4.114,6.963-1.9,9.811-4.114c2.532-2.215,5.7-4.747,11.394-4.747s8.862,2.532,11.394,4.747c2.532,1.9,4.747,3.8,9.178,4.114V62.21c-5.38-.316-8.229-2.532-10.761-4.747s-5.064-4.114-9.811-4.114-6.963,1.9-9.811,4.114C99.647,59.995,96.8,62.526,90.785,62.526Z" transform="translate(-7.584 2835.879)"/><path class="d" d="M90.785,62.526c-5.7,0-8.862-2.532-11.394-4.747s-5.064-4.114-9.811-4.114-6.963,1.9-9.811,4.114c-2.532,2.215-5.7,4.747-11.394,4.747s-8.862-2.532-11.394-4.747-5.064-4.114-9.811-4.114-6.963,1.9-9.811,4.114C14.829,59.995,11.98,62.21,6.6,62.526V59.362c4.431,0,6.646-1.9,9.178-4.114s5.7-4.747,11.394-4.747,8.862,2.532,11.394,4.747,5.064,4.114,9.811,4.114,6.963-1.9,9.811-4.114c2.532-2.215,5.7-4.747,11.394-4.747s8.862,2.532,11.394,4.747,5.064,4.114,9.811,4.114,6.963-1.9,9.811-4.114c2.532-2.215,5.7-4.747,11.394-4.747s8.862,2.532,11.394,4.747c2.532,1.9,4.747,3.8,9.178,4.114V62.21c-5.38-.316-8.229-2.532-10.761-4.747s-5.064-4.114-9.811-4.114-6.963,1.9-9.811,4.114C99.647,59.995,96.8,62.526,90.785,62.526Z" transform="translate(-7.584 2853.198)"/><path class="d" d="M90.785,62.526c-5.7,0-8.862-2.532-11.394-4.747s-5.064-4.114-9.811-4.114-6.963,1.9-9.811,4.114c-2.532,2.215-5.7,4.747-11.394,4.747s-8.862-2.532-11.394-4.747-5.064-4.114-9.811-4.114-6.963,1.9-9.811,4.114C14.829,59.995,11.98,62.21,6.6,62.526V59.362c4.431,0,6.646-1.9,9.178-4.114s5.7-4.747,11.394-4.747,8.862,2.532,11.394,4.747,5.064,4.114,9.811,4.114,6.963-1.9,9.811-4.114c2.532-2.215,5.7-4.747,11.394-4.747s8.862,2.532,11.394,4.747,5.064,4.114,9.811,4.114,6.963-1.9,9.811-4.114c2.532-2.215,5.7-4.747,11.394-4.747s8.862,2.532,11.394,4.747c2.532,1.9,4.747,3.8,9.178,4.114V62.21c-5.38-.316-8.229-2.532-10.761-4.747s-5.064-4.114-9.811-4.114-6.963,1.9-9.811,4.114C99.647,59.995,96.8,62.526,90.785,62.526Z" transform="translate(-7.584 2870.518)"/><path class="d" d="M90.785,62.526c-5.7,0-8.862-2.532-11.394-4.747s-5.064-4.114-9.811-4.114-6.963,1.9-9.811,4.114c-2.532,2.215-5.7,4.747-11.394,4.747s-8.862-2.532-11.394-4.747-5.064-4.114-9.811-4.114-6.963,1.9-9.811,4.114C14.829,59.995,11.98,62.21,6.6,62.526V59.362c4.431,0,6.646-1.9,9.178-4.114s5.7-4.747,11.394-4.747,8.862,2.532,11.394,4.747,5.064,4.114,9.811,4.114,6.963-1.9,9.811-4.114c2.532-2.215,5.7-4.747,11.394-4.747s8.862,2.532,11.394,4.747,5.064,4.114,9.811,4.114,6.963-1.9,9.811-4.114c2.532-2.215,5.7-4.747,11.394-4.747s8.862,2.532,11.394,4.747c2.532,1.9,4.747,3.8,9.178,4.114V62.21c-5.38-.316-8.229-2.532-10.761-4.747s-5.064-4.114-9.811-4.114-6.963,1.9-9.811,4.114C99.647,59.995,96.8,62.526,90.785,62.526Z" transform="translate(-7.584 2887.838)"/><path class="d" d="M90.785,62.526c-5.7,0-8.862-2.532-11.394-4.747s-5.064-4.114-9.811-4.114-6.963,1.9-9.811,4.114c-2.532,2.215-5.7,4.747-11.394,4.747s-8.862-2.532-11.394-4.747-5.064-4.114-9.811-4.114-6.963,1.9-9.811,4.114C14.829,59.995,11.98,62.21,6.6,62.526V59.362c4.431,0,6.646-1.9,9.178-4.114s5.7-4.747,11.394-4.747,8.862,2.532,11.394,4.747,5.064,4.114,9.811,4.114,6.963-1.9,9.811-4.114c2.532-2.215,5.7-4.747,11.394-4.747s8.862,2.532,11.394,4.747,5.064,4.114,9.811,4.114,6.963-1.9,9.811-4.114c2.532-2.215,5.7-4.747,11.394-4.747s8.862,2.532,11.394,4.747c2.532,1.9,4.747,3.8,9.178,4.114V62.21c-5.38-.316-8.229-2.532-10.761-4.747s-5.064-4.114-9.811-4.114-6.963,1.9-9.811,4.114C99.647,59.995,96.8,62.526,90.785,62.526Z" transform="translate(-7.584 2905.158)"/></g></g><g transform="translate(72.968 -1490.66)"><g class="c" transform="translate(54.017 -1378.399)"><path class="d" d="M90.785,62.526c-5.7,0-8.862-2.532-11.394-4.747s-5.064-4.114-9.811-4.114-6.963,1.9-9.811,4.114c-2.532,2.215-5.7,4.747-11.394,4.747s-8.862-2.532-11.394-4.747-5.064-4.114-9.811-4.114-6.963,1.9-9.811,4.114C14.829,59.995,11.98,62.21,6.6,62.526V59.362c4.431,0,6.646-1.9,9.178-4.114s5.7-4.747,11.394-4.747,8.862,2.532,11.394,4.747,5.064,4.114,9.811,4.114,6.963-1.9,9.811-4.114c2.532-2.215,5.7-4.747,11.394-4.747s8.862,2.532,11.394,4.747,5.064,4.114,9.811,4.114,6.963-1.9,9.811-4.114c2.532-2.215,5.7-4.747,11.394-4.747s8.862,2.532,11.394,4.747c2.532,1.9,4.747,3.8,9.178,4.114V62.21c-5.38-.316-8.229-2.532-10.761-4.747s-5.064-4.114-9.811-4.114-6.963,1.9-9.811,4.114C99.647,59.995,96.8,62.526,90.785,62.526Z" transform="translate(-7.584 2818.559)"/><path class="d" d="M90.785,62.526c-5.7,0-8.862-2.532-11.394-4.747s-5.064-4.114-9.811-4.114-6.963,1.9-9.811,4.114c-2.532,2.215-5.7,4.747-11.394,4.747s-8.862-2.532-11.394-4.747-5.064-4.114-9.811-4.114-6.963,1.9-9.811,4.114C14.829,59.995,11.98,62.21,6.6,62.526V59.362c4.431,0,6.646-1.9,9.178-4.114s5.7-4.747,11.394-4.747,8.862,2.532,11.394,4.747,5.064,4.114,9.811,4.114,6.963-1.9,9.811-4.114c2.532-2.215,5.7-4.747,11.394-4.747s8.862,2.532,11.394,4.747,5.064,4.114,9.811,4.114,6.963-1.9,9.811-4.114c2.532-2.215,5.7-4.747,11.394-4.747s8.862,2.532,11.394,4.747c2.532,1.9,4.747,3.8,9.178,4.114V62.21c-5.38-.316-8.229-2.532-10.761-4.747s-5.064-4.114-9.811-4.114-6.963,1.9-9.811,4.114C99.647,59.995,96.8,62.526,90.785,62.526Z" transform="translate(-7.584 2835.879)"/><path class="d" d="M90.785,62.526c-5.7,0-8.862-2.532-11.394-4.747s-5.064-4.114-9.811-4.114-6.963,1.9-9.811,4.114c-2.532,2.215-5.7,4.747-11.394,4.747s-8.862-2.532-11.394-4.747-5.064-4.114-9.811-4.114-6.963,1.9-9.811,4.114C14.829,59.995,11.98,62.21,6.6,62.526V59.362c4.431,0,6.646-1.9,9.178-4.114s5.7-4.747,11.394-4.747,8.862,2.532,11.394,4.747,5.064,4.114,9.811,4.114,6.963-1.9,9.811-4.114c2.532-2.215,5.7-4.747,11.394-4.747s8.862,2.532,11.394,4.747,5.064,4.114,9.811,4.114,6.963-1.9,9.811-4.114c2.532-2.215,5.7-4.747,11.394-4.747s8.862,2.532,11.394,4.747c2.532,1.9,4.747,3.8,9.178,4.114V62.21c-5.38-.316-8.229-2.532-10.761-4.747s-5.064-4.114-9.811-4.114-6.963,1.9-9.811,4.114C99.647,59.995,96.8,62.526,90.785,62.526Z" transform="translate(-7.584 2853.198)"/><path class="d" d="M90.785,62.526c-5.7,0-8.862-2.532-11.394-4.747s-5.064-4.114-9.811-4.114-6.963,1.9-9.811,4.114c-2.532,2.215-5.7,4.747-11.394,4.747s-8.862-2.532-11.394-4.747-5.064-4.114-9.811-4.114-6.963,1.9-9.811,4.114C14.829,59.995,11.98,62.21,6.6,62.526V59.362c4.431,0,6.646-1.9,9.178-4.114s5.7-4.747,11.394-4.747,8.862,2.532,11.394,4.747,5.064,4.114,9.811,4.114,6.963-1.9,9.811-4.114c2.532-2.215,5.7-4.747,11.394-4.747s8.862,2.532,11.394,4.747,5.064,4.114,9.811,4.114,6.963-1.9,9.811-4.114c2.532-2.215,5.7-4.747,11.394-4.747s8.862,2.532,11.394,4.747c2.532,1.9,4.747,3.8,9.178,4.114V62.21c-5.38-.316-8.229-2.532-10.761-4.747s-5.064-4.114-9.811-4.114-6.963,1.9-9.811,4.114C99.647,59.995,96.8,62.526,90.785,62.526Z" transform="translate(-7.584 2870.518)"/><path class="d" d="M90.785,62.526c-5.7,0-8.862-2.532-11.394-4.747s-5.064-4.114-9.811-4.114-6.963,1.9-9.811,4.114c-2.532,2.215-5.7,4.747-11.394,4.747s-8.862-2.532-11.394-4.747-5.064-4.114-9.811-4.114-6.963,1.9-9.811,4.114C14.829,59.995,11.98,62.21,6.6,62.526V59.362c4.431,0,6.646-1.9,9.178-4.114s5.7-4.747,11.394-4.747,8.862,2.532,11.394,4.747,5.064,4.114,9.811,4.114,6.963-1.9,9.811-4.114c2.532-2.215,5.7-4.747,11.394-4.747s8.862,2.532,11.394,4.747,5.064,4.114,9.811,4.114,6.963-1.9,9.811-4.114c2.532-2.215,5.7-4.747,11.394-4.747s8.862,2.532,11.394,4.747c2.532,1.9,4.747,3.8,9.178,4.114V62.21c-5.38-.316-8.229-2.532-10.761-4.747s-5.064-4.114-9.811-4.114-6.963,1.9-9.811,4.114C99.647,59.995,96.8,62.526,90.785,62.526Z" transform="translate(-7.584 2887.838)"/><path class="d" d="M90.785,62.526c-5.7,0-8.862-2.532-11.394-4.747s-5.064-4.114-9.811-4.114-6.963,1.9-9.811,4.114c-2.532,2.215-5.7,4.747-11.394,4.747s-8.862-2.532-11.394-4.747-5.064-4.114-9.811-4.114-6.963,1.9-9.811,4.114C14.829,59.995,11.98,62.21,6.6,62.526V59.362c4.431,0,6.646-1.9,9.178-4.114s5.7-4.747,11.394-4.747,8.862,2.532,11.394,4.747,5.064,4.114,9.811,4.114,6.963-1.9,9.811-4.114c2.532-2.215,5.7-4.747,11.394-4.747s8.862,2.532,11.394,4.747,5.064,4.114,9.811,4.114,6.963-1.9,9.811-4.114c2.532-2.215,5.7-4.747,11.394-4.747s8.862,2.532,11.394,4.747c2.532,1.9,4.747,3.8,9.178,4.114V62.21c-5.38-.316-8.229-2.532-10.761-4.747s-5.064-4.114-9.811-4.114-6.963,1.9-9.811,4.114C99.647,59.995,96.8,62.526,90.785,62.526Z" transform="translate(-7.584 2905.158)"/></g></g></g></svg>